<?xml version="1.0" encoding="UTF-8" standalone="no"?>
<!-- Created with Inkscape (http://www.inkscape.org/) -->

<svg
   xmlns:dc="http://purl.org/dc/elements/1.1/"
   xmlns:cc="http://creativecommons.org/ns#"
   xmlns:rdf="http://www.w3.org/1999/02/22-rdf-syntax-ns#"
   xmlns:svg="http://www.w3.org/2000/svg"
   xmlns="http://www.w3.org/2000/svg"
   xmlns:sodipodi="http://sodipodi.sourceforge.net/DTD/sodipodi-0.dtd"
   xmlns:inkscape="http://www.inkscape.org/namespaces/inkscape"
   width="160"
   height="160"
   viewBox="0 0 160 160"
   id="svg8017"
   version="1.1"
   inkscape:version="0.91 r13725"
   sodipodi:docname="ia3_white.svg"
   inkscape:export-filename="/home/rbejar/ownCloud/Imágenes/IAAA/Finales/ia3_white_150dpi.png"
   inkscape:export-xdpi="150.1875"
   inkscape:export-ydpi="150.1875">
  <defs
     id="defs8019" />
  <sodipodi:namedview
     id="base"
     pagecolor="#ffffff"
     bordercolor="#666666"
     borderopacity="1.0"
     inkscape:pageopacity="0.0"
     inkscape:pageshadow="2"
     inkscape:zoom="1.979899"
     inkscape:cx="54.165675"
     inkscape:cy="43.340893"
     inkscape:document-units="px"
     inkscape:current-layer="layer1"
     showgrid="false"
     fit-margin-top="0"
     fit-margin-left="0"
     fit-margin-right="0"
     fit-margin-bottom="0"
     inkscape:window-width="1600"
     inkscape:window-height="839"
     inkscape:window-x="0"
     inkscape:window-y="180"
     inkscape:window-maximized="1"
     units="px" />
  <metadata
     id="metadata8022">
    <rdf:RDF>
      <cc:Work
         rdf:about="">
        <dc:format>image/svg+xml</dc:format>
        <dc:type
           rdf:resource="http://purl.org/dc/dcmitype/StillImage" />
        <dc:title />
      </cc:Work>
    </rdf:RDF>
  </metadata>
  <g
     inkscape:label="Layer 1"
     inkscape:groupmode="layer"
     id="layer1"
     transform="translate(-227.51758,-494.31888)">
    <g
       transform="matrix(0.92406747,0,0,0.92410559,165.81816,191.96789)"
       id="g4892"
       style="stroke:none">
      <g
         id="text4140-6-4-5-8"
         style="font-style:normal;font-variant:normal;font-weight:bold;font-stretch:normal;font-size:50.44238281px;line-height:125%;font-family:'Century Gothic';-inkscape-font-specification:'Century Gothic, Bold';text-align:center;letter-spacing:0px;word-spacing:0px;writing-mode:lr-tb;text-anchor:middle;fill:#ffffff;fill-opacity:1;stroke:none;stroke-width:1.08214974px;stroke-linecap:butt;stroke-linejoin:miter;stroke-opacity:1"
         transform="matrix(0.88012978,-0.47315729,0.47386513,0.88144644,-342.0164,-124.69922)">
        <path
           inkscape:connector-curvature="0"
           id="path4531-2-3-6"
           style="font-style:normal;font-variant:normal;font-weight:bold;font-stretch:normal;font-size:50.44238281px;line-height:125%;font-family:'Century Gothic';-inkscape-font-specification:'Century Gothic, Bold';text-align:center;writing-mode:lr-tb;text-anchor:middle;fill:#ffffff;fill-opacity:1;stroke:none;stroke-width:1.22026396px;stroke-opacity:1"
           d="m 261.85332,669.73601 -6.62549,0 q 0.51723,-4.01471 2.88172,-6.45308 3.30043,-3.39895 8.30033,-3.39895 4.45804,0 7.46291,2.83246 3.0295,2.83245 3.0295,6.724 0,2.41375 -1.33002,4.40879 -1.3054,1.99503 -3.81766,3.22654 3.30043,0.9852 5.14768,3.44821 1.87189,2.43837 1.87189,5.76343 0,4.87676 -3.59599,8.27571 -3.59599,3.37432 -9.16239,3.37432 -5.27083,0 -8.59589,-3.17728 -3.32506,-3.20191 -3.64525,-8.69442 l 6.82253,0 q 0.44334,2.80783 1.94577,4.18711 1.52706,1.35466 3.84229,1.35466 2.41375,0 3.99007,-1.5517 1.60096,-1.55169 1.60096,-3.79303 0,-2.463 -2.14282,-4.16248 -2.14281,-1.69947 -6.18215,-1.74873 l 0,-5.91122 q 2.48764,-0.19704 3.69451,-0.76353 1.23151,-0.59112 1.89652,-1.60096 0.68964,-1.00983 0.68964,-2.14281 0,-1.47781 -1.03446,-2.43838 -1.03446,-0.9852 -2.70931,-0.9852 -1.4778,0 -2.68468,0.91131 -1.20687,0.88668 -1.65021,2.31523 z" />
      </g>
      <path
         inkscape:connector-curvature="0"
         style="color:#000000;display:inline;overflow:visible;visibility:visible;opacity:1;fill:#e1e1e1;fill-opacity:1;fill-rule:evenodd;stroke:none;stroke-width:1.08214974;stroke-linecap:square;stroke-linejoin:miter;stroke-miterlimit:4;stroke-dasharray:none;stroke-dashoffset:0;stroke-opacity:1;marker:none;enable-background:accumulate"
         d="m 177.04687,425.46274 a 12.737093,12.73709 0 0 1 2.70022,12.44758 12.737093,12.73709 0 0 1 -9.42981,8.56225 12.737093,12.73709 0 0 1 -12.13003,-3.88532 l 9.42981,-8.56225 z"
         id="path4153-0-4-1-2" />
      <path
         inkscape:connector-curvature="0"
         style="color:#000000;display:inline;overflow:visible;visibility:visible;opacity:1;fill:#ffffff;fill-opacity:1;fill-rule:evenodd;stroke:none;stroke-width:1.08214974;stroke-linecap:square;stroke-linejoin:miter;stroke-miterlimit:4;stroke-dasharray:none;stroke-dashoffset:0;stroke-opacity:1;marker:none;enable-background:accumulate"
         d="m 177.05691,425.4738 a 12.737093,12.73709 0 0 0 -12.13004,-3.88533 12.737093,12.73709 0 0 0 -9.42981,8.56226 12.737093,12.73709 0 0 0 2.70023,12.44758 l 9.42981,-8.56225 z"
         id="path4153-7-6-0-1-5" />
      <path
         sodipodi:nodetypes="ccccc"
         d="m 80.68394,373.12925 15.7842,0 0,121.8048 -15.7842,0 z"
         style="font-style:normal;font-variant:normal;font-weight:normal;font-stretch:normal;font-size:229.27110291px;line-height:125%;font-family:'Century Gothic';-inkscape-font-specification:'Century Gothic, Normal';text-align:center;letter-spacing:0px;word-spacing:0px;writing-mode:lr-tb;text-anchor:middle;fill:#e1e1e1;fill-opacity:1;stroke:none;stroke-width:1.08214974px;stroke-linecap:butt;stroke-linejoin:miter;stroke-opacity:1"
         id="path4536-3-0-2"
         inkscape:connector-curvature="0" />
      <g
         id="text4136-2-8-2-0-3"
         style="font-style:normal;font-variant:normal;font-weight:normal;font-stretch:normal;font-size:229.27522278px;line-height:125%;font-family:'Century Gothic';-inkscape-font-specification:'Century Gothic, Normal';text-align:center;letter-spacing:0px;word-spacing:0px;writing-mode:lr-tb;text-anchor:middle;fill:#e1e1e1;fill-opacity:1;stroke:none;stroke-width:1.08214974px;stroke-linecap:butt;stroke-linejoin:miter;stroke-opacity:1"
         transform="matrix(0.9999629,0,0,1.0000371,-341.04584,-128.77403)">
        <path
           id="path4539-8-7-2"
           style="fill:#e1e1e1;fill-opacity:1;stroke:none;stroke-width:1.08214974px;stroke-opacity:1"
           d="m 572.10693,501.88247 0,121.80247 -15.44921,0 0,-20.9348 q -9.85167,11.97873 -22.16625,18.02408 -12.20264,6.04534 -26.75624,6.04534 -25.86064,0 -44.22057,-18.69578 -18.24798,-18.80774 -18.24798,-45.67593 0,-26.30843 18.47188,-45.00422 18.47189,-18.69578 44.44447,-18.69578 15.00141,0 27.09209,6.3812 12.20264,6.38119 21.3826,19.14358 l 0,-22.39016 15.44921,0 z m -62.69244,11.97874 q -13.09825,0 -24.18137,6.49315 -11.08313,6.38119 -17.68823,18.02407 -6.49314,11.64289 -6.49314,24.62918 0,12.87434 6.60509,24.62917 6.6051,11.75483 17.68823,18.35993 11.19508,6.49315 23.95747,6.49315 12.87434,0 24.40527,-6.49315 11.53093,-6.49314 17.68822,-17.57627 6.26925,-11.08313 6.26925,-24.96503 0,-21.1587 -13.99385,-35.37645 -13.8819,-14.21775 -34.25694,-14.21775 z"
           inkscape:connector-curvature="0" />
      </g>
      <g
         transform="translate(-280.65685,-435.60721)"
         style="stroke:none;stroke-width:1.08214974;stroke-opacity:1"
         id="g7960">
        <path
           inkscape:connector-curvature="0"
           style="color:#000000;display:inline;overflow:visible;visibility:visible;opacity:1;fill:#ffffff;fill-opacity:1;fill-rule:nonzero;stroke:none;stroke-width:1.08214974;stroke-linecap:square;stroke-linejoin:miter;stroke-miterlimit:4;stroke-dasharray:none;stroke-dashoffset:0;stroke-opacity:1;marker:none;enable-background:accumulate"
           d="m 423.76361,841.40279 a 37.393445,37.393447 0 0 0 -11.11096,16.87905 37.393445,37.393447 0 0 0 7.97743,36.53149 l 8.28853,-7.54709 a 26.184018,26.18402 0 0 1 1.73183,-36.98884 26.184018,26.18402 0 0 1 36.98884,1.73183 l 8.28852,-7.54708 a 37.393445,37.393447 0 0 0 -35.62629,-11.3559 37.393445,37.393447 0 0 0 -16.5379,8.29654 z"
           id="path4396-0-2-3-81-7" />
        <path
           inkscape:connector-curvature="0"
           style="color:#000000;display:inline;overflow:visible;visibility:visible;opacity:1;fill:#e1e1e1;fill-opacity:1;fill-rule:nonzero;stroke:none;stroke-width:1.08214974;stroke-linecap:square;stroke-linejoin:miter;stroke-miterlimit:4;stroke-dasharray:none;stroke-dashoffset:0;stroke-opacity:1;marker:none;enable-background:accumulate"
           d="m 474.09975,896.68398 a 37.393445,37.393447 0 0 1 -17.84337,9.48525 37.393445,37.393447 0 0 1 -35.6263,-11.3559 l 8.28853,-7.54709 a 26.184018,26.18402 0 0 0 36.98884,1.73184 26.184018,26.18402 0 0 0 1.73183,-36.98885 l 8.28852,-7.54708 a 37.393445,37.393447 0 0 1 7.97743,36.53148 37.393445,37.393447 0 0 1 -9.80548,15.69035 z"
           id="path4396-0-7-6-7-64-3" />
      </g>
      <g
         id="text4136-9-0-1-9"
         style="font-style:normal;font-variant:normal;font-weight:normal;font-stretch:normal;font-size:229.27110291px;line-height:125%;font-family:FreeSans;-inkscape-font-specification:FreeSans;text-align:center;letter-spacing:0px;word-spacing:0px;writing-mode:lr-tb;text-anchor:middle;fill:#e1e1e1;fill-opacity:1;stroke:none;stroke-width:1.08214974px;stroke-linecap:butt;stroke-linejoin:miter;stroke-opacity:1"
         transform="matrix(0.9999629,0,0,1.0000371,11.50139,-47.21411)">
        <path
           sodipodi:nodetypes="sssssssss"
           inkscape:connector-curvature="0"
           id="path4561-0-4-0"
           style="font-style:normal;font-variant:normal;font-weight:normal;font-stretch:normal;font-size:229.27110291px;line-height:125%;font-family:'Century Gothic';-inkscape-font-specification:'Century Gothic, Normal';text-align:center;writing-mode:lr-tb;text-anchor:middle;fill:#e1e1e1;fill-opacity:1;stroke:none;stroke-width:1.08214974px;stroke-opacity:1"
           d="m 77.021535,376.64134 c 3.582361,0 6.642295,1.26875 9.1798,3.80626 2.537506,2.53751 3.806259,5.59744 3.806259,9.1798 0,3.50773 -1.268753,6.53034 -3.806259,9.06785 -2.537505,2.53751 -5.597439,3.80626 -9.1798,3.80626 -3.507729,0 -6.530346,-1.26875 -9.067851,-3.80626 -2.537506,-2.53751 -3.806259,-5.56012 -3.806259,-9.06785 0,-3.58236 1.268753,-6.64229 3.806259,-9.1798 2.537505,-2.53751 5.560122,-3.80626 9.067851,-3.80626 z" />
      </g>
    </g>
  </g>
</svg>
