<?xml version="1.0" encoding="UTF-8" standalone="no"?>
<!-- Created with Inkscape (http://www.inkscape.org/) -->

<svg
   xmlns:dc="http://purl.org/dc/elements/1.1/"
   xmlns:cc="http://creativecommons.org/ns#"
   xmlns:rdf="http://www.w3.org/1999/02/22-rdf-syntax-ns#"
   xmlns:svg="http://www.w3.org/2000/svg"
   xmlns="http://www.w3.org/2000/svg"
   xmlns:sodipodi="http://sodipodi.sourceforge.net/DTD/sodipodi-0.dtd"
   xmlns:inkscape="http://www.inkscape.org/namespaces/inkscape"
   width="172.04633mm"
   height="43.000835mm"
   viewBox="0 0 609.61297 152.36516"
   id="svg5018"
   version="1.1"
   inkscape:version="0.91 r13725"
   sodipodi:docname="ia3_text_broken.svg">
  <defs
     id="defs5020" />
  <sodipodi:namedview
     id="base"
     pagecolor="#ffffff"
     bordercolor="#666666"
     borderopacity="1.0"
     inkscape:pageopacity="0.0"
     inkscape:pageshadow="2"
     inkscape:zoom="0.7"
     inkscape:cx="482.7868"
     inkscape:cy="-102.78517"
     inkscape:document-units="px"
     inkscape:current-layer="layer1"
     showgrid="false"
     inkscape:window-width="1920"
     inkscape:window-height="1043"
     inkscape:window-x="1600"
     inkscape:window-y="0"
     inkscape:window-maximized="1"
     fit-margin-top="0"
     fit-margin-left="0"
     fit-margin-right="0"
     fit-margin-bottom="0" />
  <metadata
     id="metadata5023">
    <rdf:RDF>
      <cc:Work
         rdf:about="">
        <dc:format>image/svg+xml</dc:format>
        <dc:type
           rdf:resource="http://purl.org/dc/dcmitype/StillImage" />
        <dc:title></dc:title>
      </cc:Work>
    </rdf:RDF>
  </metadata>
  <g
     inkscape:label="Layer 1"
     inkscape:groupmode="layer"
     id="layer1"
     transform="translate(-48.159414,-131.4279)">
    <g
       id="g6182">
      <path
         inkscape:connector-curvature="0"
         d="m 316.06389,237.13267 -4.65532,-0.76915 -1.1228,-6.26241 -8.15559,-1.34747 -3.0775,5.56845 -4.65533,-0.76915 12.76379,-23.06177 4.2353,0.69976 4.66745,25.94174 z m -6.60113,-11.62632 -1.36967,-7.59768 -3.7057,6.75914 5.07537,0.83854 z"
         style="font-style:normal;font-variant:normal;font-weight:bold;font-stretch:normal;font-size:35.47703552px;line-height:125%;font-family:Cabin;-inkscape-font-specification:'Cabin, Bold';text-align:center;writing-mode:lr-tb;text-anchor:middle;fill:#4a4a4a;fill-opacity:1;fill-rule:nonzero;stroke:none"
         id="path9748" />
      <path
         inkscape:connector-curvature="0"
         d="m 333.92016,235.18001 -4.15078,0 -0.071,-0.99336 q -1.98672,1.34813 -4.3282,1.34813 -2.09315,0 -3.72509,-0.70954 -1.59647,-0.70954 -2.69625,-1.95124 -1.09979,-1.27717 -1.7029,-2.94459 -0.56764,-1.66742 -0.56764,-3.58318 0,-1.91576 0.60311,-3.58318 0.60311,-1.7029 1.7029,-2.9446 1.13527,-1.24169 2.73173,-1.95123 1.63195,-0.70954 3.65414,-0.70954 2.37696,0 4.15081,1.17074 l 0,-9.75619 4.39907,0 0,26.60778 z m -8.26612,-14.40368 q -2.12862,0 -3.29936,1.52552 -1.17074,1.49003 -1.17074,4.04438 0,2.55435 1.17074,4.07986 1.17074,1.49003 3.29936,1.49003 2.05767,0 3.05103,-1.49003 1.02883,-1.49004 1.02883,-4.07986 0,-2.58982 -1.02883,-4.07986 -0.99336,-1.49004 -3.05103,-1.49004 z"
         style="font-style:normal;font-variant:normal;font-weight:bold;font-stretch:normal;font-size:35.47703552px;line-height:125%;font-family:Cabin;-inkscape-font-specification:'Cabin, Bold';text-align:center;writing-mode:lr-tb;text-anchor:middle;fill:#4a4a4a;fill-opacity:1;fill-rule:nonzero;stroke:none"
         id="path9750" />
      <path
         inkscape:connector-curvature="0"
         d="m 353.40816,217.44149 -6.8116,17.73852 -3.7605,0 -6.8116,-17.73852 4.3282,0 4.3636,12.27506 4.3637,-12.27506 4.3282,0 z"
         style="font-style:normal;font-variant:normal;font-weight:bold;font-stretch:normal;font-size:35.47703552px;line-height:125%;font-family:Cabin;-inkscape-font-specification:'Cabin, Bold';text-align:center;writing-mode:lr-tb;text-anchor:middle;fill:#4a4a4a;fill-opacity:1;fill-rule:nonzero;stroke:none"
         id="path9752" />
      <path
         inkscape:connector-curvature="0"
         d="m 370.58736,233.91612 -0.3902,3.61866 -1.5965,0 q -2.8736,0 -3.9734,-2.05767 -1.8448,2.05767 -5.428,2.05767 -1.0998,0 -2.0577,-0.35477 -0.9224,-0.39025 -1.6319,-1.06431 -0.6741,-0.70954 -1.0643,-1.66742 -0.3903,-0.99336 -0.3903,-2.23505 0,-1.80933 1.0643,-3.01555 1.0643,-1.20622 2.5899,-1.91576 1.5255,-0.74502 3.2284,-1.06431 1.7383,-0.3193 3.0865,-0.35477 -0.071,-1.59647 -0.7805,-2.23506 -0.7096,-0.67406 -2.4125,-0.67406 -2.0931,0 -4.8603,1.34813 l -0.3903,-3.58318 q 3.2994,-1.56099 6.4568,-1.56099 6.4214,0 6.4214,7.13088 l 0,4.7894 q 0,0.95788 0.035,1.52551 0.071,0.56764 0.2128,0.88693 0.1774,0.28382 0.4967,0.35477 0.3193,0.0709 0.816,0.0709 l 0.5676,0 z m -6.5278,-1.02883 0,-4.04438 q -1.0288,0.071 -2.0222,0.28381 -0.9578,0.21287 -1.7028,0.63859 -0.7451,0.39025 -1.2063,0.95788 -0.4612,0.56763 -0.4612,1.31265 0,2.12862 2.377,2.12862 1.6674,0 3.0155,-1.27717 z"
         style="font-style:normal;font-variant:normal;font-weight:bold;font-stretch:normal;font-size:35.47703552px;line-height:125%;font-family:Cabin;-inkscape-font-specification:'Cabin, Bold';text-align:center;writing-mode:lr-tb;text-anchor:middle;fill:#4a4a4a;fill-opacity:1;fill-rule:nonzero;stroke:none"
         id="path9754" />
      <path
         inkscape:connector-curvature="0"
         d="m 388.68236,243.18001 -4.3992,0 0,-9.54332 q 0,-2.48339 -0.8514,-3.65414 -0.816,-1.20622 -2.6608,-1.20622 -2.0222,0 -3.3349,1.52552 l 0,12.87816 -4.3991,0 0,-17.73852 4.1153,0 0.071,1.06431 q 1.8803,-1.34812 3.9025,-1.34812 7.5566,0 7.5566,8.47901 l 0,9.54332 z"
         style="font-style:normal;font-variant:normal;font-weight:bold;font-stretch:normal;font-size:35.47703552px;line-height:125%;font-family:Cabin;-inkscape-font-specification:'Cabin, Bold';text-align:center;writing-mode:lr-tb;text-anchor:middle;fill:#4a4a4a;fill-opacity:1;fill-rule:nonzero;stroke:none"
         id="path9756" />
      <path
         inkscape:connector-curvature="0"
         d="m 400.20296,243.53478 q -2.0577,0 -3.6542,-0.70954 -1.5964,-0.70954 -2.6962,-1.91576 -1.0998,-1.2417 -1.7029,-2.90912 -0.5676,-1.70289 -0.5676,-3.65413 0,-1.95124 0.5676,-3.61866 0.6031,-1.66742 1.7029,-2.90912 1.0998,-1.24169 2.6962,-1.95123 1.5965,-0.70954 3.6542,-0.70954 3.2639,0 5.3215,1.31265 l -0.3902,3.76056 q -2.1996,-1.45456 -4.5766,-1.45456 -2.1286,0 -3.2993,1.52552 -1.1708,1.49003 -1.1708,4.04438 0,2.55435 1.1708,4.07986 1.1707,1.49003 3.2993,1.49003 2.377,0 4.5766,-1.45455 l 0.3902,3.76056 q -2.0576,1.31265 -5.3215,1.31265 z"
         style="font-style:normal;font-variant:normal;font-weight:bold;font-stretch:normal;font-size:35.47703552px;line-height:125%;font-family:Cabin;-inkscape-font-specification:'Cabin, Bold';text-align:center;writing-mode:lr-tb;text-anchor:middle;fill:#4a4a4a;fill-opacity:1;fill-rule:nonzero;stroke:none"
         id="path9758" />
      <path
         inkscape:connector-curvature="0"
         d="m 423.34676,229.26863 -11.4591,0 q 0.3547,2.30601 1.8448,3.47675 1.5255,1.17074 3.4412,1.17074 0.6032,0 1.3127,-0.10643 0.7095,-0.10643 1.4191,-0.28381 0.745,-0.21287 1.4545,-0.46121 0.7096,-0.28381 1.2772,-0.6031 l 0.2129,3.72508 q -2.5899,1.34813 -5.9247,1.34813 -2.3415,0 -4.1508,-0.70954 -1.7739,-0.70954 -3.0156,-1.91576 -1.2062,-1.2417 -1.8448,-2.90912 -0.6031,-1.70289 -0.6031,-3.65413 0,-1.91576 0.5677,-3.58318 0.6031,-1.66742 1.7029,-2.90912 1.0997,-1.27717 2.6607,-1.98671 1.5965,-0.70954 3.5832,-0.70954 1.6674,0 3.0865,0.56763 1.4546,0.53215 2.4834,1.56099 1.0643,0.99336 1.632,2.41244 0.6031,1.41908 0.6031,3.15745 0,0.99336 -0.2838,2.41244 z m -11.3527,-2.98007 7.1664,0 q 0,-1.3836 -0.7805,-2.44791 -0.7805,-1.06432 -2.4125,-1.06432 -1.6319,0 -2.6253,0.95788 -0.9933,0.95788 -1.3481,2.55435 z"
         style="font-style:normal;font-variant:normal;font-weight:bold;font-stretch:normal;font-size:35.47703552px;line-height:125%;font-family:Cabin;-inkscape-font-specification:'Cabin, Bold';text-align:center;writing-mode:lr-tb;text-anchor:middle;fill:#4a4a4a;fill-opacity:1;fill-rule:nonzero;stroke:none"
         id="path9760" />
      <path
         inkscape:connector-curvature="0"
         d="m 442.84576,235.18001 -4.1508,0 -0.071,-0.99336 q -1.9867,1.34813 -4.3281,1.34813 -2.0932,0 -3.7251,-0.70954 -1.5965,-0.70954 -2.6963,-1.95124 -1.0998,-1.27717 -1.7029,-2.94459 -0.5676,-1.66742 -0.5676,-3.58318 0,-1.91576 0.6031,-3.58318 0.6031,-1.7029 1.7029,-2.9446 1.1353,-1.24169 2.7317,-1.95123 1.632,-0.70954 3.6542,-0.70954 2.3769,0 4.1508,1.17074 l 0,-9.75619 4.3991,0 0,26.60778 z m -8.2661,-14.40368 q -2.1287,0 -3.2994,1.52552 -1.1707,1.49003 -1.1707,4.04438 0,2.55435 1.1707,4.07986 1.1707,1.49003 3.2994,1.49003 2.0576,0 3.051,-1.49003 1.0288,-1.49004 1.0288,-4.07986 0,-2.58982 -1.0288,-4.07986 -0.9934,-1.49004 -3.051,-1.49004 z"
         style="font-style:normal;font-variant:normal;font-weight:bold;font-stretch:normal;font-size:35.47703552px;line-height:125%;font-family:Cabin;-inkscape-font-specification:'Cabin, Bold';text-align:center;writing-mode:lr-tb;text-anchor:middle;fill:#4a4a4a;fill-opacity:1;fill-rule:nonzero;stroke:none"
         id="path9762" />
      <path
         inkscape:connector-curvature="0"
         d="m 459.55934,235.38332 -4.44962,-0.9069 4.95956,-24.33364 4.44962,0.9069 -4.95956,24.33364 z"
         style="font-style:normal;font-variant:normal;font-weight:bold;font-stretch:normal;font-size:35.47703552px;line-height:125%;font-family:Cabin;-inkscape-font-specification:'Cabin, Bold';text-align:center;writing-mode:lr-tb;text-anchor:middle;fill:#4a4a4a;fill-opacity:1;fill-rule:nonzero;stroke:none"
         id="path9764" />
      <path
         inkscape:connector-curvature="0"
         d="m 480.14656,235.18001 -4.3992,0 0,-9.54332 q 0,-2.48339 -0.8514,-3.65414 -0.816,-1.20622 -2.6608,-1.20622 -2.0222,0 -3.3348,1.52552 l 0,12.87816 -4.3992,0 0,-17.73852 4.1154,0 0.071,1.06431 q 1.8803,-1.34812 3.9025,-1.34812 7.5566,0 7.5566,8.47901 l 0,9.54332 z"
         style="font-style:normal;font-variant:normal;font-weight:bold;font-stretch:normal;font-size:35.47703552px;line-height:125%;font-family:Cabin;-inkscape-font-specification:'Cabin, Bold';text-align:center;writing-mode:lr-tb;text-anchor:middle;fill:#4a4a4a;fill-opacity:1;fill-rule:nonzero;stroke:none"
         id="path9766" />
      <path
         inkscape:connector-curvature="0"
         d="m 493.13505,215.32307 -3.56756,-1.58177 -5.72308,12.90802 -4.02164,-1.78309 5.72308,-12.90801 -2.30262,-1.02093 1.82343,-3.14993 1.94591,0.86277 1.71117,-3.85943 q 0.37387,-0.84324 0.97852,-1.50654 0.60455,-0.66334 1.34981,-1.03145 0.74536,-0.36807 1.60267,-0.37604 0.90405,-0.026 1.84464,0.39098 1.5243,0.67584 3.57856,1.8195 l -1.8379,3.18231 q -0.32793,-0.22306 -0.73519,-0.44239 -0.39288,-0.25174 -0.91177,-0.4818 -0.87568,-0.38826 -1.39765,0.001 -0.52197,0.3895 -1.18343,1.88137 l -0.97781,2.20539 3.56756,1.58177 -1.46672,3.30809 z"
         style="font-style:normal;font-variant:normal;font-weight:bold;font-stretch:normal;font-size:35.47703552px;line-height:125%;font-family:Cabin;-inkscape-font-specification:'Cabin, Bold';text-align:center;writing-mode:lr-tb;text-anchor:middle;fill:#4a4a4a;fill-opacity:1;fill-rule:nonzero;stroke:none"
         id="path9768" />
      <path
         inkscape:connector-curvature="0"
         d="m 510.19066,232.874 q -2.4125,2.66078 -6.5278,2.66078 -2.0577,0 -3.7251,-0.70954 -1.6319,-0.70954 -2.8027,-1.95124 -1.1707,-1.24169 -1.8093,-2.90911 -0.6386,-1.66742 -0.6386,-3.61866 0,-1.91576 0.6386,-3.58318 0.6386,-1.7029 1.8093,-2.9446 1.1708,-1.24169 2.8027,-1.95123 1.6674,-0.70954 3.7251,-0.70954 2.0577,0 3.7251,0.74501 1.6674,0.70955 2.8381,1.95124 1.1708,1.2417 1.7739,2.90912 0.6386,1.66742 0.6386,3.58318 0,3.867 -2.4479,6.52777 z m -3.2639,-10.57215 q -1.1708,-1.52552 -3.2639,-1.52552 -2.1286,0 -3.2994,1.52552 -1.1707,1.52551 -1.1707,4.04438 0,2.51887 1.1707,4.04438 1.1708,1.52551 3.2994,1.52551 2.1286,0 3.2994,-1.56099 1.1707,-1.56099 1.1707,-4.0089 0,-2.51887 -1.2062,-4.04438 z"
         style="font-style:normal;font-variant:normal;font-weight:bold;font-stretch:normal;font-size:35.47703552px;line-height:125%;font-family:Cabin;-inkscape-font-specification:'Cabin, Bold';text-align:center;writing-mode:lr-tb;text-anchor:middle;fill:#4a4a4a;fill-opacity:1;fill-rule:nonzero;stroke:none"
         id="path9770" />
      <path
         inkscape:connector-curvature="0"
         d="m 522.56691,221.99514 0.56368,4.19959 -1.54077,0.53769 q -1.00487,0.35067 -1.6786,1.11184 -0.67382,0.7612 -0.78507,1.62667 l 3.98601,11.42214 -4.15355,1.44948 -5.84459,-16.74801 3.8856,-1.35597 0.71998,1.74024 q 1.22976,-2.72124 3.74189,-3.5979 l 1.10542,-0.38577 z"
         style="font-style:normal;font-variant:normal;font-weight:bold;font-stretch:normal;font-size:35.47703552px;line-height:125%;font-family:Cabin;-inkscape-font-specification:'Cabin, Bold';text-align:center;writing-mode:lr-tb;text-anchor:middle;fill:#4a4a4a;fill-opacity:1;fill-rule:nonzero;stroke:none"
         id="path9772" />
      <path
         inkscape:connector-curvature="0"
         d="m 554.61836,241.18001 -4.3991,0 0,-9.54332 q 0,-2.55435 -0.745,-3.68961 -0.745,-1.17075 -2.5544,-1.17075 -1.9867,0 -2.7672,0.92241 -0.745,0.9224 -0.745,2.51887 l 0,10.9624 -4.3637,0 0,-9.54332 q 0,-1.38361 -0.2128,-2.30601 -0.1774,-0.95788 -0.6031,-1.52551 -0.4258,-0.56763 -1.0998,-0.7805 -0.6741,-0.24834 -1.632,-0.24834 -2.0222,0 -3.2639,1.45456 l 0,12.94912 -4.3991,0 0,-17.73852 3.6186,0 0.2484,1.38361 q 2.0576,-1.66742 4.541,-1.66742 1.632,0 3.0865,0.70954 1.4546,0.67406 2.3415,1.98671 0.2484,-0.49668 0.7805,-0.95788 0.5677,-0.49668 1.3127,-0.88692 0.7805,-0.39025 1.7383,-0.60311 0.9579,-0.24834 2.0577,-0.24834 1.7384,0 3.051,0.60311 1.3482,0.60311 2.2351,1.70289 0.8869,1.09979 1.3126,2.69626 0.4612,1.56099 0.4612,3.47675 l 0,9.54332 z"
         style="font-style:normal;font-variant:normal;font-weight:bold;font-stretch:normal;font-size:35.47703552px;line-height:125%;font-family:Cabin;-inkscape-font-specification:'Cabin, Bold';text-align:center;writing-mode:lr-tb;text-anchor:middle;fill:#4a4a4a;fill-opacity:1;fill-rule:nonzero;stroke:none"
         id="path9774" />
      <path
         inkscape:connector-curvature="0"
         d="m 573.74886,231.91612 -0.3903,3.61866 -1.5964,0 q -2.8737,0 -3.9735,-2.05767 -1.8448,2.05767 -5.428,2.05767 -1.0997,0 -2.0576,-0.35477 -0.9224,-0.39025 -1.632,-1.06431 -0.674,-0.70954 -1.0643,-1.66742 -0.3902,-0.99336 -0.3902,-2.23505 0,-1.80933 1.0643,-3.01555 1.0643,-1.20622 2.5898,-1.91576 1.5255,-0.74502 3.2284,-1.06431 1.7384,-0.3193 3.0865,-0.35477 -0.071,-1.59647 -0.7805,-2.23506 -0.7095,-0.67406 -2.4124,-0.67406 -2.0932,0 -4.8604,1.34813 l -0.3902,-3.58318 q 3.2993,-1.56099 6.4568,-1.56099 6.4213,0 6.4213,7.13088 l 0,4.7894 q 0,0.95788 0.036,1.52551 0.071,0.56764 0.2129,0.88693 0.1774,0.28382 0.4967,0.35477 0.3193,0.0709 0.8159,0.0709 l 0.5677,0 z m -6.5278,-1.02883 0,-4.04438 q -1.0288,0.071 -2.0222,0.28381 -0.9579,0.21287 -1.7029,0.63859 -0.745,0.39025 -1.2062,0.95788 -0.4612,0.56763 -0.4612,1.31265 0,2.12862 2.3769,2.12862 1.6675,0 3.0156,-1.27717 z"
         style="font-style:normal;font-variant:normal;font-weight:bold;font-stretch:normal;font-size:35.47703552px;line-height:125%;font-family:Cabin;-inkscape-font-specification:'Cabin, Bold';text-align:center;writing-mode:lr-tb;text-anchor:middle;fill:#4a4a4a;fill-opacity:1;fill-rule:nonzero;stroke:none"
         id="path9776" />
      <path
         inkscape:connector-curvature="0"
         d="m 585.25166,231.91612 -0.3902,3.61866 -3.1575,0 q -1.1707,0 -2.0576,-0.35477 -0.887,-0.39025 -1.4901,-0.99336 -0.6031,-0.63858 -0.9224,-1.49003 -0.2838,-0.85145 -0.2838,-1.80933 l 0,-9.82714 -2.5189,0 0.3903,-3.61866 2.1286,0 0,-3.90247 4.3992,-0.4612 0,4.36367 3.9024,0 0,3.61866 -3.9024,0 0,8.01781 q 0,1.02883 0.071,1.59647 0.071,0.56763 0.3193,0.85145 0.2838,0.28381 0.816,0.35477 0.5321,0.0355 1.49,0.0355 l 1.2062,0 z"
         style="font-style:normal;font-variant:normal;font-weight:bold;font-stretch:normal;font-size:35.47703552px;line-height:125%;font-family:Cabin;-inkscape-font-specification:'Cabin, Bold';text-align:center;writing-mode:lr-tb;text-anchor:middle;fill:#4a4a4a;fill-opacity:1;fill-rule:nonzero;stroke:none"
         id="path9778" />
      <path
         inkscape:connector-curvature="0"
         d="m 592.51566,214.74524 -4.3992,0 0,-4.39915 4.3992,0 0,4.39915 z m 0,20.43477 -4.3992,0 0,-17.73852 4.3992,0 0,17.73852 z"
         style="font-style:normal;font-variant:normal;font-weight:bold;font-stretch:normal;font-size:35.47703552px;line-height:125%;font-family:Cabin;-inkscape-font-specification:'Cabin, Bold';text-align:center;writing-mode:lr-tb;text-anchor:middle;fill:#4a4a4a;fill-opacity:1;fill-rule:nonzero;stroke:none"
         id="path9780" />
      <path
         inkscape:connector-curvature="0"
         d="m 611.07846,232.874 q -2.4125,2.66078 -6.5278,2.66078 -2.0577,0 -3.7251,-0.70954 -1.6319,-0.70954 -2.8027,-1.95124 -1.1707,-1.24169 -1.8093,-2.90911 -0.6386,-1.66742 -0.6386,-3.61866 0,-1.91576 0.6386,-3.58318 0.6386,-1.7029 1.8093,-2.9446 1.1708,-1.24169 2.8027,-1.95123 1.6674,-0.70954 3.7251,-0.70954 2.0577,0 3.7251,0.74501 1.6674,0.70955 2.8382,1.95124 1.1707,1.2417 1.7738,2.90912 0.6386,1.66742 0.6386,3.58318 0,3.867 -2.4479,6.52777 z m -3.2639,-10.57215 q -1.1707,-1.52552 -3.2639,-1.52552 -2.1286,0 -3.2994,1.52552 -1.1707,1.52551 -1.1707,4.04438 0,2.51887 1.1707,4.04438 1.1708,1.52551 3.2994,1.52551 2.1286,0 3.2994,-1.56099 1.1707,-1.56099 1.1707,-4.0089 0,-2.51887 -1.2062,-4.04438 z"
         style="font-style:normal;font-variant:normal;font-weight:bold;font-stretch:normal;font-size:35.47703552px;line-height:125%;font-family:Cabin;-inkscape-font-specification:'Cabin, Bold';text-align:center;writing-mode:lr-tb;text-anchor:middle;fill:#4a4a4a;fill-opacity:1;fill-rule:nonzero;stroke:none"
         id="path9782" />
      <path
         inkscape:connector-curvature="0"
         d="m 632.27764,242.64365 -4.24071,1.16982 -2.53779,-9.1997 q -0.66039,-2.39397 -1.79256,-3.29614 -1.10729,-0.94582 -2.88567,-0.45524 -1.94938,0.53778 -2.80914,2.35742 l 3.42461,12.41446 -4.24071,1.16984 -4.71709,-17.09984 3.96712,-1.09436 0.35147,1.00712 q 1.454,-1.79957 3.40339,-2.33732 7.28452,-2.00948 9.53929,6.16424 l 2.53779,9.1997 z"
         style="font-style:normal;font-variant:normal;font-weight:bold;font-stretch:normal;font-size:35.47703552px;line-height:125%;font-family:Cabin;-inkscape-font-specification:'Cabin, Bold';text-align:center;writing-mode:lr-tb;text-anchor:middle;fill:#4a4a4a;fill-opacity:1;fill-rule:nonzero;stroke:none"
         id="path9784" />
      <path
         inkscape:connector-curvature="0"
         d="m 326.23273,261.00401 q -2.40552,1.13718 -4.62153,1.59616 -2.216,0.45895 -3.59285,0.28577 l -1.7326,-4.91019 q 1.49639,0.50909 3.65816,0.35045 2.17868,-0.20587 4.52007,-1.31273 4.00921,-1.89531 2.85686,-4.33291 -0.33357,-0.70562 -0.94415,-1.08408 -0.59366,-0.42571 -1.33602,-0.5849 -0.71029,-0.17436 -1.48822,-0.15978 -0.74587,-5.8e-4 -1.44624,0.0951 l -3.51529,0.36684 -1.5407,0.0612 q -2.41487,0.12133 -3.89086,-0.59362 -1.47599,-0.71494 -2.5426,-2.72217 -0.6065,-1.28294 -0.6864,-2.69711 -0.0951,-1.44623 0.4595,-2.8464 0.53942,-1.43225 1.80603,-2.73738 1.26661,-1.30512 3.3514,-2.29068 1.05843,-0.50036 2.19268,-0.84035 1.16631,-0.35516 2.24982,-0.55344 1.06835,-0.23035 1.98974,-0.27352 0.9214,-0.0432 1.53896,0.0181 l 1.56932,4.39876 q -4.67578,-0.2618 -7.53033,1.08766 -0.83392,0.39422 -1.51097,0.87126 -0.67704,0.47703 -1.11791,1.03861 -0.40878,0.54642 -0.54932,1.16224 -0.10846,0.60066 0.19479,1.24213 0.39422,0.83391 1.00654,1.13307 0.62923,0.25193 1.56579,0.24084 0.96862,-0.0263 2.3373,-0.20238 1.35351,-0.20821 3.21321,-0.34176 l 2.05039,-0.14522 q 0.79484,-0.0618 1.75997,0.0706 0.96513,0.13236 1.90811,0.5499 0.97505,0.40237 1.84688,1.16746 0.85667,0.73304 1.41768,1.91976 0.48519,1.02635 0.78962,2.33438 0.30441,1.30802 -0.0933,2.79101 -0.41286,1.4509 -1.81126,2.9753 -1.41357,1.49231 -4.33228,2.87209 z"
         style="font-style:normal;font-variant:normal;font-weight:bold;font-stretch:normal;font-size:35.47703552px;line-height:125%;font-family:Cabin;-inkscape-font-specification:'Cabin, Bold';text-align:center;writing-mode:lr-tb;text-anchor:middle;fill:#4a4a4a;fill-opacity:1;fill-rule:nonzero;stroke:none"
         id="path9786" />
      <path
         inkscape:connector-curvature="0"
         d="m 349.94386,235.78779 -11.1043,26.32396 -4.3991,0 3.9379,-9.75619 -7.3792,-16.56777 4.8958,0 4.5411,11.4236 4.612,-11.4236 4.8958,0 z"
         style="font-style:normal;font-variant:normal;font-weight:bold;font-stretch:normal;font-size:35.47703552px;line-height:125%;font-family:Cabin;-inkscape-font-specification:'Cabin, Bold';text-align:center;writing-mode:lr-tb;text-anchor:middle;fill:#4a4a4a;fill-opacity:1;fill-rule:nonzero;stroke:none"
         id="path9788" />
      <path
         inkscape:connector-curvature="0"
         d="m 356.97556,261.88108 q -4.0444,0 -5.9956,-1.31265 l 0.3902,-3.76057 q 0.4257,0.31929 1.0643,0.63859 0.6741,0.31929 1.3836,0.56763 0.7451,0.24834 1.5255,0.42572 0.7805,0.14191 1.4901,0.14191 1.49,0 2.0931,-0.56763 0.6031,-0.56763 0.6031,-1.38361 0,-0.78049 -0.4257,-1.17074 -0.4257,-0.42572 -1.2417,-0.70954 -0.7805,-0.31929 -1.9157,-0.63859 -1.1353,-0.35477 -2.5544,-1.06431 -1.0643,-0.60311 -1.5965,-1.45455 -0.5321,-0.88693 -0.6385,-2.44792 0,-1.09979 0.3547,-2.09315 0.3903,-1.02883 1.1708,-1.80932 0.7805,-0.7805 1.9867,-1.2417 1.2417,-0.49668 2.9801,-0.49668 1.6319,0 3.1929,0.39025 1.5965,0.39025 2.377,0.9224 l -0.3903,3.76057 q -0.3902,-0.35477 -0.9579,-0.70954 -0.5321,-0.35477 -1.1707,-0.60311 -0.6386,-0.28382 -1.3481,-0.42573 -0.7096,-0.17738 -1.3837,-0.17738 -1.2771,0 -2.1286,0.49668 -0.8159,0.4612 -0.8159,1.45455 0,0.85145 0.5321,1.27718 0.5676,0.42572 1.49,0.78049 l 0.6032,0.17739 q 0.2128,0.0709 0.674,0.21286 0.4967,0.10643 0.745,0.17738 1.0998,0.3193 1.9868,0.74502 0.9224,0.42573 1.5609,1.06431 0.6386,0.63859 0.9579,1.52552 0.3548,0.88692 0.3548,2.09314 0,5.21513 -6.9535,5.21513 z"
         style="font-style:normal;font-variant:normal;font-weight:bold;font-stretch:normal;font-size:35.47703552px;line-height:125%;font-family:Cabin;-inkscape-font-specification:'Cabin, Bold';text-align:center;writing-mode:lr-tb;text-anchor:middle;fill:#4a4a4a;fill-opacity:1;fill-rule:nonzero;stroke:none"
         id="path9790" />
      <path
         inkscape:connector-curvature="0"
         d="m 376.30446,258.26242 -0.3903,3.61866 -3.1574,0 q -1.1708,0 -2.0577,-0.35477 -0.8869,-0.39025 -1.49,-0.99336 -0.6031,-0.63859 -0.9224,-1.49004 -0.2838,-0.85145 -0.2838,-1.80933 l 0,-9.82713 -2.5189,0 0.3902,-3.61866 2.1287,0 0,-3.90248 4.3991,-0.4612 0,4.36368 3.9025,0 0,3.61866 -3.9025,0 0,8.01781 q 0,1.02883 0.071,1.59646 0.071,0.56763 0.3193,0.85145 0.2838,0.28382 0.8159,0.35477 0.5322,0.0355 1.4901,0.0355 l 1.2062,0 z"
         style="font-style:normal;font-variant:normal;font-weight:bold;font-stretch:normal;font-size:35.47703552px;line-height:125%;font-family:Cabin;-inkscape-font-specification:'Cabin, Bold';text-align:center;writing-mode:lr-tb;text-anchor:middle;fill:#4a4a4a;fill-opacity:1;fill-rule:nonzero;stroke:none"
         id="path9792" />
      <path
         inkscape:connector-curvature="0"
         d="m 394.14056,253.61493 -11.4591,0 q 0.3547,2.306 1.8448,3.47675 1.5255,1.17074 3.4413,1.17074 0.6031,0 1.3126,-0.10643 0.7095,-0.10643 1.4191,-0.28382 0.745,-0.21286 1.4545,-0.4612 0.7096,-0.28382 1.2772,-0.60311 l 0.2129,3.72509 q -2.5898,1.34813 -5.9247,1.34813 -2.3415,0 -4.1508,-0.70955 -1.7738,-0.70954 -3.0155,-1.91576 -1.2063,-1.24169 -1.8448,-2.90911 -0.6032,-1.7029 -0.6032,-3.65414 0,-1.91576 0.5677,-3.58318 0.6031,-1.66742 1.7029,-2.90911 1.0998,-1.27718 2.6607,-1.98672 1.5965,-0.70954 3.5832,-0.70954 1.6675,0 3.0865,0.56763 1.4546,0.53216 2.4834,1.56099 1.0643,0.99336 1.632,2.41244 0.6031,1.41908 0.6031,3.15746 0,0.99335 -0.2838,2.41244 z m -11.3527,-2.98007 7.1664,0 q 0,-1.38361 -0.7805,-2.44792 -0.7805,-1.06431 -2.4125,-1.06431 -1.6319,0 -2.6253,0.95788 -0.9933,0.95788 -1.3481,2.55435 z"
         style="font-style:normal;font-variant:normal;font-weight:bold;font-stretch:normal;font-size:35.47703552px;line-height:125%;font-family:Cabin;-inkscape-font-specification:'Cabin, Bold';text-align:center;writing-mode:lr-tb;text-anchor:middle;fill:#4a4a4a;fill-opacity:1;fill-rule:nonzero;stroke:none"
         id="path9794" />
      <path
         inkscape:connector-curvature="0"
         d="m 426.90924,252.19249 -3.88535,2.06326 -4.47591,-8.4286 q -1.19801,-2.25598 -2.38844,-2.90923 -1.20707,-0.68457 -2.80512,0.16405 -1.75464,0.93178 -2.01135,2.1125 -0.22537,1.16407 0.52339,2.57406 l 5.14147,9.68193 -3.85398,2.04662 -4.47592,-8.42861 q -0.64892,-1.22198 -1.26948,-1.93684 -0.60593,-0.76279 -1.24813,-1.06447 -0.64229,-0.30162 -1.3374,-0.1735 -0.71183,0.0968 -1.55784,0.54609 -1.78599,0.94843 -2.20036,2.81541 l 6.07326,11.43657 -3.88535,2.06327 -8.31953,-15.66654 3.19601,-1.6972 0.86822,1.10553 q 1.03531,-2.43774 3.22863,-3.60248 1.44128,-0.76537 3.05876,-0.82093 1.60075,-0.0868 2.9997,0.65652 -0.0136,-0.55517 0.24007,-1.21206 0.26844,-0.70492 0.74339,-1.399 0.5063,-0.71073 1.25248,-1.34799 0.72945,-0.66855 1.70078,-1.18436 1.53535,-0.81533 2.97758,-0.89834 1.4735,-0.0996 2.77261,0.45576 1.29912,0.55536 2.42394,1.76564 1.13944,1.16235 2.03795,2.85433 l 4.47592,8.42861 z"
         style="font-style:normal;font-variant:normal;font-weight:bold;font-stretch:normal;font-size:35.47703552px;line-height:125%;font-family:Cabin;-inkscape-font-specification:'Cabin, Bold';text-align:center;writing-mode:lr-tb;text-anchor:middle;fill:#4a4a4a;fill-opacity:1;fill-rule:nonzero;stroke:none"
         id="path9796" />
      <path
         inkscape:connector-curvature="0"
         d="m 433.19576,253.88108 q -4.0444,0 -5.9956,-1.31265 l 0.3902,-3.76057 q 0.4257,0.31929 1.0643,0.63859 0.6741,0.31929 1.3836,0.56763 0.7451,0.24834 1.5255,0.42572 0.7805,0.14191 1.4901,0.14191 1.49,0 2.0931,-0.56763 0.6031,-0.56763 0.6031,-1.38361 0,-0.78049 -0.4257,-1.17074 -0.4257,-0.42572 -1.2417,-0.70954 -0.7805,-0.31929 -1.9157,-0.63859 -1.1353,-0.35477 -2.5544,-1.06431 -1.0643,-0.60311 -1.5965,-1.45455 -0.5321,-0.88693 -0.6385,-2.44792 0,-1.09979 0.3547,-2.09315 0.3903,-1.02883 1.1708,-1.80932 0.7805,-0.7805 1.9867,-1.2417 1.2417,-0.49668 2.9801,-0.49668 1.6319,0 3.1929,0.39025 1.5965,0.39025 2.377,0.9224 l -0.3903,3.76057 q -0.3902,-0.35477 -0.9579,-0.70954 -0.5321,-0.35477 -1.1707,-0.60311 -0.6386,-0.28382 -1.3481,-0.42573 -0.7096,-0.17738 -1.3837,-0.17738 -1.2771,0 -2.1286,0.49668 -0.8159,0.4612 -0.8159,1.45455 0,0.85145 0.5321,1.27718 0.5676,0.42572 1.49,0.78049 l 0.6032,0.17739 q 0.2128,0.0709 0.674,0.21286 0.4967,0.10643 0.745,0.17738 1.0998,0.3193 1.9868,0.74502 0.9224,0.42573 1.5609,1.06431 0.6386,0.63859 0.9579,1.52552 0.3548,0.88692 0.3548,2.09314 0,5.21513 -6.9535,5.21513 z"
         style="font-style:normal;font-variant:normal;font-weight:bold;font-stretch:normal;font-size:35.47703552px;line-height:125%;font-family:Cabin;-inkscape-font-specification:'Cabin, Bold';text-align:center;writing-mode:lr-tb;text-anchor:middle;fill:#4a4a4a;fill-opacity:1;fill-rule:nonzero;stroke:none"
         id="path9798" />
      <path
         inkscape:connector-curvature="0"
         d="m 466.59516,261.52631 -14.7584,0 0,-24.83393 4.541,0 0,20.43477 10.2174,0 0,4.39916 z"
         style="font-style:normal;font-variant:normal;font-weight:bold;font-stretch:normal;font-size:35.47703552px;line-height:125%;font-family:Cabin;-inkscape-font-specification:'Cabin, Bold';text-align:center;writing-mode:lr-tb;text-anchor:middle;fill:#4a4a4a;fill-opacity:1;fill-rule:nonzero;stroke:none"
         id="path9800" />
      <path
         inkscape:connector-curvature="0"
         d="m 484.12086,250.26242 -0.3903,3.61866 -1.5965,0 q -2.8736,0 -3.9734,-2.05767 -1.8448,2.05767 -5.428,2.05767 -1.0998,0 -2.0576,-0.35477 -0.9224,-0.39025 -1.632,-1.06432 -0.6741,-0.70954 -1.0643,-1.66742 -0.3902,-0.99335 -0.3902,-2.23505 0,-1.80933 1.0643,-3.01555 1.0643,-1.20622 2.5898,-1.91576 1.5255,-0.74502 3.2284,-1.06431 1.7384,-0.31929 3.0865,-0.35477 -0.071,-1.59647 -0.7805,-2.23505 -0.7095,-0.67407 -2.4124,-0.67407 -2.0932,0 -4.8604,1.34813 l -0.3902,-3.58318 q 3.2993,-1.56099 6.4568,-1.56099 6.4213,0 6.4213,7.13089 l 0,4.7894 q 0,0.95788 0.035,1.52551 0.071,0.56763 0.2129,0.88692 0.1774,0.28382 0.4966,0.35477 0.3193,0.071 0.816,0.071 l 0.5677,0 z m -6.5278,-1.02884 0,-4.04438 q -1.0289,0.071 -2.0222,0.28382 -0.9579,0.21286 -1.7029,0.63858 -0.745,0.39025 -1.2062,0.95788 -0.4612,0.56764 -0.4612,1.31266 0,2.12862 2.3769,2.12862 1.6674,0 3.0156,-1.27718 z"
         style="font-style:normal;font-variant:normal;font-weight:bold;font-stretch:normal;font-size:35.47703552px;line-height:125%;font-family:Cabin;-inkscape-font-specification:'Cabin, Bold';text-align:center;writing-mode:lr-tb;text-anchor:middle;fill:#4a4a4a;fill-opacity:1;fill-rule:nonzero;stroke:none"
         id="path9802" />
      <path
         inkscape:connector-curvature="0"
         d="m 495.08486,253.88108 q -2.3769,0 -4.3636,-1.34813 l -0.071,0.99336 -4.1153,0 0,-26.60778 4.3991,0 0,9.75618 q 1.7384,-1.17074 4.1508,-1.17074 2.0222,0 3.6187,0.70954 1.6319,0.70954 2.7317,1.95124 1.1353,1.2417 1.7384,2.94459 0.6031,1.66742 0.6031,3.58318 0,1.91576 -0.6031,3.58318 -0.5676,1.66742 -1.6674,2.9446 -1.0998,1.24169 -2.7318,1.95123 -1.6319,0.70955 -3.6896,0.70955 z m -0.2838,-14.75845 q -2.0577,0 -3.0865,1.49003 -0.9933,1.49004 -0.9933,4.07986 0,2.58983 0.9933,4.07986 1.0288,1.49004 3.0865,1.49004 2.1286,0 3.2994,-1.49004 1.1707,-1.52551 1.1707,-4.07986 0,-2.55434 -1.1707,-4.04438 -1.1708,-1.52551 -3.2994,-1.52551 z"
         style="font-style:normal;font-variant:normal;font-weight:bold;font-stretch:normal;font-size:35.47703552px;line-height:125%;font-family:Cabin;-inkscape-font-specification:'Cabin, Bold';text-align:center;writing-mode:lr-tb;text-anchor:middle;fill:#4a4a4a;fill-opacity:1;fill-rule:nonzero;stroke:none"
         id="path9804" />
      <path
         inkscape:connector-curvature="0"
         d="m 519.53486,259.48292 q -3.36224,1.26303 -7.02203,-0.6189 -1.82994,-0.94099 -2.9883,-2.3345 -1.1268,-1.37727 -1.60018,-3.01693 -0.47328,-1.63962 -0.27869,-3.41451 0.1946,-1.77489 1.0869,-3.51015 0.87608,-1.70371 2.20651,-2.89453 1.34664,-1.22237 2.95559,-1.79127 1.60904,-0.56885 3.38478,-0.45359 1.80731,0.1315 3.63725,1.07249 1.82994,0.94099 2.97208,2.36604 1.15837,1.39351 1.63174,3.03318 0.47329,1.63961 0.24713,3.39826 -0.1946,1.77489 -1.07068,3.4786 -1.76838,3.43897 -5.1621,4.68581 z m 1.93203,-10.89453 q -0.3436,-1.89207 -2.20502,-2.84924 -1.89299,-0.97341 -3.63181,-0.15216 -1.73873,0.82129 -2.89061,3.06135 -1.15188,2.24006 -0.80839,4.13209 0.34359,1.89206 2.23659,2.86547 1.89299,0.97341 3.64803,0.12061 1.75496,-0.85285 2.8744,-3.02981 1.15188,-2.24006 0.77681,-4.14831 z"
         style="font-style:normal;font-variant:normal;font-weight:bold;font-stretch:normal;font-size:35.47703552px;line-height:125%;font-family:Cabin;-inkscape-font-specification:'Cabin, Bold';text-align:center;writing-mode:lr-tb;text-anchor:middle;fill:#4a4a4a;fill-opacity:1;fill-rule:nonzero;stroke:none"
         id="path9806" />
      <path
         inkscape:connector-curvature="0"
         d="m 536.87016,243.50397 -0.8514,4.15081 -1.632,0 q -1.0643,0 -1.9512,0.49668 -0.8869,0.49668 -1.2772,1.27718 l 0,12.09767 -4.3991,0 0,-17.73852 4.1153,0 0.1064,1.88028 q 2.0577,-2.1641 4.7185,-2.1641 l 1.1707,0 z"
         style="font-style:normal;font-variant:normal;font-weight:bold;font-stretch:normal;font-size:35.47703552px;line-height:125%;font-family:Cabin;-inkscape-font-specification:'Cabin, Bold';text-align:center;writing-mode:lr-tb;text-anchor:middle;fill:#4a4a4a;fill-opacity:1;fill-rule:nonzero;stroke:none"
         id="path9808" />
      <path
         inkscape:connector-curvature="0"
         d="m 553.89696,258.26242 -0.3903,3.61866 -1.5964,0 q -2.8737,0 -3.9735,-2.05767 -1.8448,2.05767 -5.428,2.05767 -1.0997,0 -2.0576,-0.35477 -0.9224,-0.39025 -1.632,-1.06432 -0.674,-0.70954 -1.0643,-1.66742 -0.3902,-0.99335 -0.3902,-2.23505 0,-1.80933 1.0643,-3.01555 1.0643,-1.20622 2.5898,-1.91576 1.5255,-0.74502 3.2284,-1.06431 1.7384,-0.31929 3.0865,-0.35477 -0.071,-1.59647 -0.7805,-2.23505 -0.7095,-0.67407 -2.4124,-0.67407 -2.0932,0 -4.8604,1.34813 l -0.3902,-3.58318 q 3.2994,-1.56099 6.4568,-1.56099 6.4214,0 6.4214,7.13089 l 0,4.7894 q 0,0.95788 0.035,1.52551 0.071,0.56763 0.2129,0.88692 0.1774,0.28382 0.4967,0.35477 0.3193,0.071 0.8159,0.071 l 0.5677,0 z m -6.5278,-1.02884 0,-4.04438 q -1.0288,0.071 -2.0222,0.28382 -0.9579,0.21286 -1.7029,0.63858 -0.745,0.39025 -1.2062,0.95788 -0.4612,0.56764 -0.4612,1.31266 0,2.12862 2.377,2.12862 1.6674,0 3.0155,-1.27718 z"
         style="font-style:normal;font-variant:normal;font-weight:bold;font-stretch:normal;font-size:35.47703552px;line-height:125%;font-family:Cabin;-inkscape-font-specification:'Cabin, Bold';text-align:center;writing-mode:lr-tb;text-anchor:middle;fill:#4a4a4a;fill-opacity:1;fill-rule:nonzero;stroke:none"
         id="path9810" />
      <path
         inkscape:connector-curvature="0"
         d="m 565.39986,258.26242 -0.3903,3.61866 -3.1574,0 q -1.1708,0 -2.0577,-0.35477 -0.8869,-0.39025 -1.49,-0.99336 -0.6032,-0.63859 -0.9225,-1.49004 -0.2838,-0.85145 -0.2838,-1.80933 l 0,-9.82713 -2.5188,0 0.3902,-3.61866 2.1286,0 0,-3.90248 4.3992,-0.4612 0,4.36368 3.9025,0 0,3.61866 -3.9025,0 0,8.01781 q 0,1.02883 0.071,1.59646 0.071,0.56763 0.3193,0.85145 0.2838,0.28382 0.816,0.35477 0.5322,0.0355 1.49,0.0355 l 1.2063,0 z"
         style="font-style:normal;font-variant:normal;font-weight:bold;font-stretch:normal;font-size:35.47703552px;line-height:125%;font-family:Cabin;-inkscape-font-specification:'Cabin, Bold';text-align:center;writing-mode:lr-tb;text-anchor:middle;fill:#4a4a4a;fill-opacity:1;fill-rule:nonzero;stroke:none"
         id="path9812" />
      <path
         inkscape:connector-curvature="0"
         d="m 582.70376,251.2203 q -2.4125,2.66078 -6.5278,2.66078 -2.0577,0 -3.7251,-0.70955 -1.6319,-0.70954 -2.8027,-1.95123 -1.1707,-1.2417 -1.8093,-2.90912 -0.6386,-1.66742 -0.6386,-3.61866 0,-1.91576 0.6386,-3.58318 0.6386,-1.70289 1.8093,-2.94459 1.1708,-1.2417 2.8027,-1.95124 1.6674,-0.70954 3.7251,-0.70954 2.0577,0 3.7251,0.74502 1.6674,0.70954 2.8382,1.95124 1.1707,1.24169 1.7738,2.90911 0.6386,1.66742 0.6386,3.58318 0,3.867 -2.4479,6.52778 z m -3.2639,-10.57216 q -1.1708,-1.52551 -3.2639,-1.52551 -2.1286,0 -3.2994,1.52551 -1.1707,1.52551 -1.1707,4.04438 0,2.51887 1.1707,4.04439 1.1708,1.52551 3.2994,1.52551 2.1286,0 3.2994,-1.56099 1.1707,-1.56099 1.1707,-4.00891 0,-2.51887 -1.2062,-4.04438 z"
         style="font-style:normal;font-variant:normal;font-weight:bold;font-stretch:normal;font-size:35.47703552px;line-height:125%;font-family:Cabin;-inkscape-font-specification:'Cabin, Bold';text-align:center;writing-mode:lr-tb;text-anchor:middle;fill:#4a4a4a;fill-opacity:1;fill-rule:nonzero;stroke:none"
         id="path9814" />
      <path
         inkscape:connector-curvature="0"
         d="m 598.33136,235.50397 -0.8514,4.15081 -1.632,0 q -1.0643,0 -1.9512,0.49668 -0.8869,0.49668 -1.2772,1.27718 l 0,12.09767 -4.3991,0 0,-17.73852 4.1153,0 0.1064,1.88028 q 2.0577,-2.1641 4.7185,-2.1641 l 1.1707,0 z"
         style="font-style:normal;font-variant:normal;font-weight:bold;font-stretch:normal;font-size:35.47703552px;line-height:125%;font-family:Cabin;-inkscape-font-specification:'Cabin, Bold';text-align:center;writing-mode:lr-tb;text-anchor:middle;fill:#4a4a4a;fill-opacity:1;fill-rule:nonzero;stroke:none"
         id="path9816" />
      <path
         inkscape:connector-curvature="0"
         d="m 621.1093,249.61272 -24.20637,15.17597 -3.60164,-2.52591 8.82595,-5.72651 3.47154,-17.80146 4.00829,2.81112 -2.84141,11.96021 10.33526,-6.70459 4.00838,2.81117 z"
         style="font-style:normal;font-variant:normal;font-weight:bold;font-stretch:normal;font-size:35.47703552px;line-height:125%;font-family:Cabin;-inkscape-font-specification:'Cabin, Bold';text-align:center;writing-mode:lr-tb;text-anchor:middle;fill:#4a4a4a;fill-opacity:1;fill-rule:nonzero;stroke:none"
         id="path9818" />
      <g
         style="fill:#c87113;fill-opacity:1;stroke:none"
         transform="matrix(2.4572131,0.61941962,0.61941962,-2.4572131,273.85207,250.84125)"
         id="g40-0-8">
        <path
           inkscape:connector-curvature="0"
           id="path42-4-8"
           style="fill:#c87113;fill-opacity:1;fill-rule:evenodd;stroke:none"
           d="m 0,0 0,-6.896 c 0,-3.525 1.632,-5.091 4.434,-5.091 2.899,0 4.629,1.633 4.629,5.059 l 0,6.928 -2.504,0 0,-7.078 c 0,-1.976 -0.726,-2.901 -2.044,-2.901 -1.268,0 -2.011,0.975 -2.011,2.901 L 2.504,0 0,0 Z" />
      </g>
      <g
         style="fill:#c87113;fill-opacity:1;stroke:none"
         transform="matrix(2.534083,0,0,-2.534083,296.90026,283.56349)"
         id="g44-1-7">
        <path
           inkscape:connector-curvature="0"
           id="path46-94-6"
           style="fill:#c87113;fill-opacity:1;fill-rule:evenodd;stroke:none"
           d="m 0,0 2.502,0 0,4.646 c 0,0.232 0.019,0.461 0.084,0.626 0.182,0.463 0.592,0.939 1.285,0.939 0.905,0 1.269,-0.708 1.269,-1.747 l 0,-4.464 2.505,0 0,4.761 c 0,2.373 -1.236,3.478 -2.884,3.478 -1.352,0 -2.158,-0.775 -2.487,-1.301 l -0.05,0 -0.117,1.12 -2.174,0 C -0.034,7.332 0,6.492 0,5.487 L 0,0 Z" />
      </g>
      <g
         style="fill:#c87113;fill-opacity:1;stroke:none"
         transform="matrix(2.534083,0,0,-2.534083,323.42136,277.21814)"
         id="g48-1-0">
        <path
           inkscape:connector-curvature="0"
           id="path50-4-49"
           style="fill:#c87113;fill-opacity:1;fill-rule:evenodd;stroke:none"
           d="m 0,0 c -0.809,0 -1.336,-0.542 -1.336,-1.252 0,-0.692 0.511,-1.252 1.303,-1.252 0.839,0 1.349,0.56 1.349,1.252 C 1.3,-0.542 0.806,0 0,0" />
      </g>
      <path
         inkscape:connector-curvature="0"
         id="path52-3-1"
         style="fill:#c87113;fill-opacity:1;fill-rule:evenodd;stroke:none"
         d="m 326.54963,263.14385 -6.34534,0 0,20.41964 6.34534,0 0,-20.41964 z" />
      <g
         style="fill:#c87113;fill-opacity:1;stroke:none"
         transform="matrix(2.534083,0,0,-2.534083,328.31011,263.14384)"
         id="g54-6-2">
        <path
           inkscape:connector-curvature="0"
           id="path56-4-2"
           style="fill:#c87113;fill-opacity:1;fill-rule:evenodd;stroke:none"
           d="m 0,0 2.935,-8.058 2.503,0 L 8.437,0 5.8,0 4.762,-3.74 C 4.58,-4.431 4.448,-5.042 4.317,-5.7 l -0.049,0 C 4.135,-5.058 4.003,-4.431 3.805,-3.74 L 2.719,0 0,0 Z" />
      </g>
      <g
         style="fill:#c87113;fill-opacity:1;stroke:none"
         transform="matrix(2.534083,0,0,-2.534083,355.66422,270.61939)"
         id="g58-2-24">
        <path
           inkscape:connector-curvature="0"
           id="path60-2-6"
           style="fill:#c87113;fill-opacity:1;fill-rule:evenodd;stroke:none"
           d="M 0,0 C 0.066,0.659 0.496,1.632 1.549,1.632 2.704,1.632 2.966,0.61 2.966,0 L 0,0 Z m 5.207,-1.713 c 0.032,0.18 0.083,0.559 0.083,0.987 0,1.994 -0.988,4.021 -3.592,4.021 -2.802,0 -4.071,-2.257 -4.071,-4.301 0,-2.521 1.567,-4.102 4.302,-4.102 1.088,0 2.093,0.165 2.915,0.511 L 4.515,-2.901 C 3.842,-3.13 3.148,-3.246 2.291,-3.246 c -1.169,0 -2.208,0.494 -2.274,1.533 l 5.19,0 z" />
      </g>
      <g
         style="fill:#c87113;fill-opacity:1;stroke:none"
         transform="matrix(2.534083,0,0,-2.534083,371.70638,283.56349)"
         id="g62-7-0">
        <path
           inkscape:connector-curvature="0"
           id="path64-61-2"
           style="fill:#c87113;fill-opacity:1;fill-rule:evenodd;stroke:none"
           d="m 0,0 2.504,0 0,4.087 c 0,0.197 0.018,0.395 0.05,0.559 0.166,0.775 0.792,1.27 1.713,1.27 0.28,0 0.479,-0.035 0.676,-0.067 l 0,2.357 C 4.762,8.239 4.646,8.255 4.416,8.255 3.625,8.255 2.652,7.76 2.241,6.576 l -0.066,0 -0.099,1.482 -2.142,0 C -0.016,7.364 0,6.591 0,5.404 L 0,0 Z" />
      </g>
      <g
         style="fill:#c87113;fill-opacity:1;stroke:none"
         transform="matrix(2.534083,0,0,-2.534083,385.24285,282.10892)"
         id="g66-8-3">
        <path
           inkscape:connector-curvature="0"
           id="path68-51-98"
           style="fill:#c87113;fill-opacity:1;fill-rule:evenodd;stroke:none"
           d="m 0,0 c 0.609,-0.329 1.548,-0.574 2.604,-0.574 2.304,0 3.475,1.102 3.475,2.62 -0.016,1.169 -0.641,1.96 -2.176,2.487 -0.987,0.346 -1.299,0.543 -1.299,0.94 0,0.395 0.345,0.642 0.954,0.642 0.675,0 1.383,-0.263 1.747,-0.462 L 5.733,7.384 C 5.237,7.631 4.416,7.861 3.476,7.861 1.482,7.861 0.197,6.726 0.197,5.208 0.18,4.253 0.824,3.347 2.503,2.786 3.426,2.474 3.674,2.275 3.674,1.848 c 0,-0.413 -0.315,-0.66 -1.07,-0.66 -0.742,0 -1.698,0.314 -2.16,0.593 L 0,0 Z" />
      </g>
      <g
         style="fill:#c87113;fill-opacity:1;stroke:none"
         transform="matrix(2.534083,0,0,-2.534083,406.57983,277.21814)"
         id="g70-1-6">
        <path
           inkscape:connector-curvature="0"
           id="path72-30-8"
           style="fill:#c87113;fill-opacity:1;fill-rule:evenodd;stroke:none"
           d="m 0,0 c -0.807,0 -1.334,-0.542 -1.334,-1.252 0,-0.692 0.513,-1.252 1.302,-1.252 0.843,0 1.352,0.56 1.352,1.252 C 1.305,-0.542 0.811,0 0,0" />
      </g>
      <path
         inkscape:connector-curvature="0"
         id="path74-6-69"
         style="fill:#c87113;fill-opacity:1;fill-rule:evenodd;stroke:none"
         d="m 409.7158,263.14385 -6.34534,0 0,20.41964 6.34534,0 0,-20.41964 z" />
      <g
         style="fill:#c87113;fill-opacity:1;stroke:none"
         transform="matrix(2.534083,0,0,-2.534083,427.09495,274.00239)"
         id="g76-4-7">
        <path
           inkscape:connector-curvature="0"
           id="path78-4-2"
           style="fill:#c87113;fill-opacity:1;fill-rule:evenodd;stroke:none"
           d="m 0,0 c 0,-0.197 -0.018,-0.396 -0.051,-0.577 -0.147,-0.708 -0.742,-1.202 -1.467,-1.202 -1.037,0 -1.711,0.855 -1.711,2.223 0,1.27 0.575,2.29 1.726,2.29 0.775,0 1.319,-0.559 1.47,-1.219 C 0,1.367 0,1.187 0,1.054 L 0,0 Z m 0,8.123 0,-4.367 -0.033,0 c -0.363,0.544 -1.121,0.906 -2.125,0.906 -1.93,0 -3.625,-1.582 -3.612,-4.301 0,-2.503 1.534,-4.134 3.446,-4.134 1.039,0 2.025,0.46 2.52,1.35 l 0.049,0 0.099,-1.17 2.226,0 C 2.537,-3.05 2.505,-2.094 2.505,-1.188 l 0,9.311 -2.505,0 z" />
      </g>
      <g
         style="fill:#c87113;fill-opacity:1;stroke:none"
         transform="matrix(2.534083,0,0,-2.534083,448.22369,275.67235)"
         id="g80-7-6">
        <path
           inkscape:connector-curvature="0"
           id="path82-5-88"
           style="fill:#c87113;fill-opacity:1;fill-rule:evenodd;stroke:none"
           d="m 0,0 c 0,-0.148 -0.017,-0.298 -0.05,-0.43 -0.166,-0.509 -0.69,-0.923 -1.301,-0.923 -0.558,0 -0.987,0.315 -0.987,0.957 0,0.955 1.022,1.27 2.338,1.27 L 0,0 Z m 2.422,1.827 c 0,1.912 -0.84,3.494 -3.526,3.494 -1.466,0 -2.571,-0.412 -3.129,-0.725 l 0.46,-1.615 c 0.527,0.331 1.402,0.61 2.226,0.61 1.234,0 1.464,-0.61 1.464,-1.055 l 0,-0.098 c -2.85,0 -4.728,-0.989 -4.728,-3.082 0,-1.285 0.97,-2.47 2.603,-2.47 0.958,0 1.778,0.344 2.308,0.988 l 0.048,0 0.149,-0.808 2.258,0 c -0.101,0.447 -0.133,1.187 -0.133,1.945 l 0,2.816 z" />
      </g>
      <g
         style="fill:#c87113;fill-opacity:1;stroke:none"
         transform="matrix(2.534083,0,0,-2.534083,471.69619,274.00239)"
         id="g84-38-9">
        <path
           inkscape:connector-curvature="0"
           id="path86-2-8"
           style="fill:#c87113;fill-opacity:1;fill-rule:evenodd;stroke:none"
           d="m 0,0 c 0,-0.197 -0.017,-0.396 -0.049,-0.577 -0.148,-0.708 -0.743,-1.202 -1.468,-1.202 -1.038,0 -1.712,0.855 -1.712,2.223 0,1.27 0.579,2.29 1.729,2.29 0.775,0 1.319,-0.559 1.469,-1.219 C 0,1.367 0,1.187 0,1.054 L 0,0 Z m 0,8.123 0,-4.367 -0.031,0 c -0.365,0.544 -1.122,0.906 -2.125,0.906 -1.929,0 -3.627,-1.582 -3.611,-4.301 0,-2.503 1.534,-4.134 3.445,-4.134 1.039,0 2.026,0.46 2.52,1.35 l 0.048,0 0.101,-1.17 2.223,0 C 2.537,-3.05 2.508,-2.094 2.508,-1.188 l 0,9.311 -2.508,0 z" />
      </g>
      <g
         style="stroke:none"
         transform="matrix(2.534083,0,0,-2.534083,528.96566,270.41666)"
         id="g88-7-8">
        <path
           inkscape:connector-curvature="0"
           id="path90-3-1"
           style="fill:#1d1d1b;fill-opacity:1;fill-rule:evenodd;stroke:none"
           d="m 0,0 c 0,1.615 -0.606,3.316 -3.1,3.316 -1.025,0 -2.017,-0.286 -2.695,-0.707 l 0.339,-0.994 c 0.574,0.389 1.363,0.607 2.14,0.607 1.666,0.017 1.852,-1.213 1.852,-1.87 l 0,-0.167 c -3.15,0.015 -4.9,-1.062 -4.9,-3.031 0,-1.176 0.842,-2.342 2.49,-2.342 1.161,0 2.036,0.573 2.492,1.213 l 0.051,0 0.117,-1.027 1.33,0 C 0.032,-4.444 0,-3.755 0,-3.047 L 0,0 Z m -1.434,-2.257 c 0,-0.135 -0.016,-0.303 -0.065,-0.472 -0.236,-0.691 -0.926,-1.365 -2.005,-1.365 -0.738,0 -1.378,0.439 -1.378,1.416 0,1.582 1.832,1.869 3.448,1.835 l 0,-1.414" />
      </g>
      <g
         style="stroke:none"
         transform="matrix(2.534083,0,0,-2.534083,536.20912,283.56349)"
         id="g92-5-6">
        <path
           inkscape:connector-curvature="0"
           id="path94-3-8"
           style="fill:#1d1d1b;fill-opacity:1;fill-rule:nonzero;stroke:none"
           d="m 0,0 1.479,0 0,4.346 c 0,0.234 0.018,0.488 0.051,0.69 0.203,1.11 0.945,1.884 1.991,1.884 0.2,0 0.351,0 0.504,-0.032 l 0,1.397 C 3.889,8.3 3.771,8.318 3.621,8.318 2.627,8.318 1.717,7.626 1.348,6.532 l -0.052,0 -0.067,1.617 -1.297,0 C -0.017,7.391 0,6.566 0,5.609 L 0,0" />
      </g>
      <g
         style="stroke:none"
         transform="matrix(2.534083,0,0,-2.534083,565.63566,270.41666)"
         id="g96-7-0">
        <path
           inkscape:connector-curvature="0"
           id="path98-4-4"
           style="fill:#1d1d1b;fill-opacity:1;fill-rule:evenodd;stroke:none"
           d="m 0,0 c 0,1.615 -0.603,3.316 -3.096,3.316 -1.029,0 -2.02,-0.286 -2.695,-0.707 l 0.339,-0.994 c 0.569,0.389 1.363,0.607 2.137,0.607 1.668,0.017 1.853,-1.213 1.853,-1.87 l 0,-0.167 C -4.61,0.2 -6.36,-0.877 -6.36,-2.846 c 0,-1.176 0.839,-2.342 2.49,-2.342 1.16,0 2.038,0.573 2.49,1.213 l 0.053,0 0.117,-1.027 1.33,0 C 0.036,-4.444 0,-3.755 0,-3.047 L 0,0 Z m -1.431,-2.257 c 0,-0.135 -0.014,-0.303 -0.066,-0.472 -0.236,-0.691 -0.924,-1.365 -2.004,-1.365 -0.74,0 -1.382,0.439 -1.382,1.416 0,1.582 1.837,1.869 3.452,1.835 l 0,-1.414" />
      </g>
      <g
         style="stroke:none"
         transform="matrix(2.534083,0,0,-2.534083,590.55544,259.62907)"
         id="g100-8-8">
        <path
           inkscape:connector-curvature="0"
           id="path102-0-4"
           style="fill:#1d1d1b;fill-opacity:1;fill-rule:evenodd;stroke:none"
           d="m 0,0 c 0,0.976 0.016,1.647 0.063,2.222 l -1.312,0 -0.052,-1.23 -0.032,0 c -0.369,0.675 -1.127,1.399 -2.542,1.399 -1.887,0 -3.688,-1.55 -3.688,-4.308 0,-2.259 1.45,-3.977 3.47,-3.977 1.263,0 2.155,0.607 2.593,1.363 l 0.033,0 0,-0.892 c 0,-2.07 -1.112,-2.862 -2.626,-2.862 -1.011,0 -1.853,0.306 -2.391,0.656 l -0.37,-1.144 c 0.656,-0.439 1.733,-0.672 2.71,-0.672 1.027,0 2.173,0.252 2.981,0.976 C -0.393,-7.745 0,-6.617 0,-4.731 L 0,0 Z m -1.484,-2.458 c 0,-0.253 -0.035,-0.54 -0.119,-0.79 -0.301,-0.944 -1.126,-1.519 -2.054,-1.519 -1.581,0 -2.405,1.33 -2.405,2.933 0,1.884 1.007,3.081 2.422,3.081 1.096,0 1.801,-0.709 2.073,-1.584 0.067,-0.186 0.083,-0.404 0.083,-0.657 l 0,-1.464" />
      </g>
      <g
         style="stroke:none"
         transform="matrix(2.534083,0,0,-2.534083,606.67321,262.01364)"
         id="g104-0-42">
        <path
           inkscape:connector-curvature="0"
           id="path106-1-96"
           style="fill:#1d1d1b;fill-opacity:1;fill-rule:evenodd;stroke:none"
           d="m 0,0 c -2.24,0 -4.044,-1.6 -4.044,-4.308 0,-2.577 1.721,-4.196 3.907,-4.196 1.952,0 4.057,1.314 4.057,4.329 C 3.92,-1.701 2.339,0 0,0 m -0.035,-1.112 c 1.75,0 2.439,-1.736 2.439,-3.114 0,-1.836 -1.058,-3.166 -2.473,-3.166 -1.447,0 -2.458,1.347 -2.458,3.132 0,1.532 0.757,3.148 2.492,3.148" />
      </g>
      <g
         style="stroke:none"
         transform="matrix(2.534083,0,0,-2.534083,619.88572,283.56349)"
         id="g108-6-4">
        <path
           inkscape:connector-curvature="0"
           id="path110-4-5"
           style="fill:#1d1d1b;fill-opacity:1;fill-rule:nonzero;stroke:none"
           d="m 0,0 6.601,0 0,1.179 -4.748,0 0,0.033 c 0.371,0.404 0.69,0.827 1.043,1.28 l 3.171,4.731 0,0.926 -6.2,0 0,-1.179 4.412,0 0,-0.032 C 3.908,6.5 4.042,6.113 3.673,5.657 L 0,0.858 0,0" />
      </g>
      <g
         style="stroke:none"
         transform="matrix(2.5118838,-0.33468883,-0.33468883,-2.5118838,655.80437,269.39237)"
         id="g112-5-54">
        <path
           inkscape:connector-curvature="0"
           id="path114-8-7"
           style="fill:#1d1d1b;fill-opacity:1;fill-rule:evenodd;stroke:none"
           d="m 0,0 c 0,1.615 -0.604,3.316 -3.096,3.316 -1.029,0 -2.023,-0.286 -2.697,-0.707 l 0.339,-0.994 c 0.571,0.389 1.363,0.607 2.14,0.607 1.666,0.017 1.848,-1.213 1.848,-1.87 l 0,-0.167 c -3.146,0.015 -4.896,-1.062 -4.896,-3.031 0,-1.176 0.841,-2.342 2.491,-2.342 1.16,0 2.038,0.573 2.49,1.213 l 0.052,0 0.116,-1.027 1.33,0 C 0.034,-4.444 0,-3.755 0,-3.047 L 0,0 Z m -1.433,-2.257 c 0,-0.135 -0.016,-0.303 -0.065,-0.472 -0.235,-0.691 -0.927,-1.365 -2.004,-1.365 -0.742,0 -1.381,0.439 -1.381,1.416 0,1.582 1.833,1.869 3.45,1.835 l 0,-1.414" />
      </g>
      <g
         style="stroke:none"
         transform="matrix(2.534083,0,0,-2.534083,485.66346,283.56349)"
         id="g116-3-0">
        <path
           inkscape:connector-curvature="0"
           id="path118-1-5"
           style="fill:#1d1d1b;fill-opacity:1;fill-rule:nonzero;stroke:none"
           d="m 0,0 9.259,0 0,1.23 -7.324,0 0,0.05 7.265,9.174 0,0.894 -9.2,0 0,-1.228 7.278,0 0,-0.05 L 0,0.858 0,0 Z" />
      </g>
      <g
         id="text4140-6-4-9"
         style="font-style:normal;font-variant:normal;font-weight:bold;font-stretch:normal;font-size:50.44238281px;line-height:125%;font-family:'Century Gothic';-inkscape-font-specification:'Century Gothic, Bold';text-align:center;letter-spacing:0px;word-spacing:0px;writing-mode:lr-tb;text-anchor:middle;fill:#9e9797;fill-opacity:1;stroke:none;stroke-width:1px;stroke-linecap:butt;stroke-linejoin:miter;stroke-opacity:1"
         transform="matrix(0.71874305,-0.69420075,0.69523927,0.71981828,-447.38696,-155.48337)">
        <path
           inkscape:connector-curvature="0"
           id="path4531-2-35"
           style="font-style:normal;font-variant:normal;font-weight:bold;font-stretch:normal;font-size:50.44238281px;line-height:125%;font-family:'Century Gothic';-inkscape-font-specification:'Century Gothic, Bold';text-align:center;writing-mode:lr-tb;text-anchor:middle;fill:#9e9797;fill-opacity:1;stroke:none;stroke-width:1.12762952px;stroke-opacity:1"
           d="m 261.85332,669.73601 -6.62549,0 q 0.51723,-4.01471 2.88172,-6.45308 3.30043,-3.39895 8.30033,-3.39895 4.45804,0 7.46291,2.83246 3.0295,2.83245 3.0295,6.724 0,2.41375 -1.33002,4.40879 -1.3054,1.99503 -3.81766,3.22654 3.30043,0.9852 5.14768,3.44821 1.87189,2.43837 1.87189,5.76343 0,4.87676 -3.59599,8.27571 -3.59599,3.37432 -9.16239,3.37432 -5.27083,0 -8.59589,-3.17728 -3.32506,-3.20191 -3.64525,-8.69442 l 6.82253,0 q 0.44334,2.80783 1.94577,4.18711 1.52706,1.35466 3.84229,1.35466 2.41375,0 3.99007,-1.5517 1.60096,-1.55169 1.60096,-3.79303 0,-2.463 -2.14282,-4.16248 -2.14281,-1.69947 -6.18215,-1.74873 l 0,-5.91122 q 2.48764,-0.19704 3.69451,-0.76353 1.23151,-0.59112 1.89652,-1.60096 0.68964,-1.00983 0.68964,-2.14281 0,-1.47781 -1.03446,-2.43838 -1.03446,-0.9852 -2.70931,-0.9852 -1.4778,0 -2.68468,0.91131 -1.20687,0.88668 -1.65021,2.31523 z" />
      </g>
      <g
         style="stroke:none;stroke-width:1.23606932;stroke-opacity:1"
         transform="matrix(0.80898272,-0.00736487,0.00736488,0.80898253,-96.809781,2.7239455)"
         id="g4185-5-7-7">
        <path
           id="path4153-0-4-0"
           d="m 71.025868,455.23773 a 15.743928,15.743928 0 0 1 -7.871964,13.63464 15.743928,15.743928 0 0 1 -15.743928,0 15.743928,15.743928 0 0 1 -7.871963,-13.63464 l 15.743927,0 z"
           style="color:#000000;display:inline;overflow:visible;visibility:visible;opacity:1;fill:#808080;fill-opacity:1;fill-rule:evenodd;stroke:none;stroke-width:1.23606932;stroke-linecap:square;stroke-linejoin:miter;stroke-miterlimit:4;stroke-dasharray:none;stroke-dashoffset:0;stroke-opacity:1;marker:none;enable-background:accumulate"
           transform="matrix(0.74643134,-0.66546243,0.66546243,0.74643134,0,0)"
           inkscape:connector-curvature="0" />
        <path
           id="path4153-7-6-0-8"
           d="m 71.025868,-455.2562 a 15.743928,15.743928 0 0 1 -7.871964,13.63465 15.743928,15.743928 0 0 1 -15.743928,0 15.743928,15.743928 0 0 1 -7.871963,-13.63465 l 15.743927,0 z"
           style="color:#000000;display:inline;overflow:visible;visibility:visible;opacity:1;fill:#9a9797;fill-opacity:1;fill-rule:evenodd;stroke:none;stroke-width:1.23606932;stroke-linecap:square;stroke-linejoin:miter;stroke-miterlimit:4;stroke-dasharray:none;stroke-dashoffset:0;stroke-opacity:1;marker:none;enable-background:accumulate"
           transform="matrix(0.74643134,-0.66546243,-0.66546243,-0.74643134,0,0)"
           inkscape:connector-curvature="0" />
      </g>
      <path
         sodipodi:nodetypes="ccccc"
         d="m 123.53841,166.45897 14.31273,6.6548 -51.354361,110.44972 -14.312739,-6.6548 z"
         style="font-style:normal;font-variant:normal;font-weight:normal;font-stretch:normal;font-size:229.27110291px;line-height:125%;font-family:'Century Gothic';-inkscape-font-specification:'Century Gothic, Normal';text-align:center;letter-spacing:0px;word-spacing:0px;writing-mode:lr-tb;text-anchor:middle;fill:#e89728;fill-opacity:1;stroke:none;stroke-width:1px;stroke-linecap:butt;stroke-linejoin:miter;stroke-opacity:1"
         id="path4536-3-1"
         inkscape:connector-curvature="0" />
      <g
         id="text4136-2-8-2-9"
         style="font-style:normal;font-variant:normal;font-weight:normal;font-stretch:normal;font-size:229.27522278px;line-height:125%;font-family:'Century Gothic';-inkscape-font-specification:'Century Gothic, Normal';text-align:center;letter-spacing:0px;word-spacing:0px;writing-mode:lr-tb;text-anchor:middle;fill:#e89728;fill-opacity:1;stroke:none;stroke-width:1px;stroke-linecap:butt;stroke-linejoin:miter;stroke-opacity:1"
         transform="matrix(0.9999629,0,0,1.0000371,-324.60428,-343.27933)">
        <path
           id="path4539-8-9"
           style="stroke:none;stroke-width:1px"
           d="m 572.10693,501.88247 0,121.80247 -15.44921,0 0,-20.9348 q -9.85167,11.97873 -22.16625,18.02408 -12.20264,6.04534 -26.75624,6.04534 -25.86064,0 -44.22057,-18.69578 -18.24798,-18.80774 -18.24798,-45.67593 0,-26.30843 18.47188,-45.00422 18.47189,-18.69578 44.44447,-18.69578 15.00141,0 27.09209,6.3812 12.20264,6.38119 21.3826,19.14358 l 0,-22.39016 15.44921,0 z m -62.69244,11.97874 q -13.09825,0 -24.18137,6.49315 -11.08313,6.38119 -17.68823,18.02407 -6.49314,11.64289 -6.49314,24.62918 0,12.87434 6.60509,24.62917 6.6051,11.75483 17.68823,18.35993 11.19508,6.49315 23.95747,6.49315 12.87434,0 24.40527,-6.49315 11.53093,-6.49314 17.68822,-17.57627 6.26925,-11.08313 6.26925,-24.96503 0,-21.1587 -13.99385,-35.37645 -13.8819,-14.21775 -34.25694,-14.21775 z"
           inkscape:connector-curvature="0" />
      </g>
      <g
         transform="matrix(0.60434663,-0.55028621,0.55028617,0.60434659,-168.88009,34.204743)"
         style="stroke:none;stroke-width:1.22347641;stroke-opacity:1"
         id="g4447-2-0-7">
        <path
           inkscape:connector-curvature="0"
           style="color:#000000;display:inline;overflow:visible;visibility:visible;opacity:1;fill:#fdb95a;fill-opacity:1;fill-rule:nonzero;stroke:none;stroke-width:1.22347641;stroke-linecap:square;stroke-linejoin:miter;stroke-miterlimit:4;stroke-dasharray:none;stroke-dashoffset:0;stroke-opacity:1;marker:none;enable-background:accumulate"
           d="m 157.53711,423.81836 a 45.75,45.75 0 0 0 -23.95508,6.11719 45.75,45.75 0 0 0 -22.875,39.61914 l 13.71485,0 a 32.03553,32.03553 0 0 1 32.03515,-32.03516 32.03553,32.03553 0 0 1 32.03516,32.03516 l 13.71484,0 a 45.75,45.75 0 0 0 -22.875,-39.61914 45.75,45.75 0 0 0 -21.79492,-6.11719 z"
           id="path4396-0-2-3-82" />
        <path
           inkscape:connector-curvature="0"
           style="color:#000000;display:inline;overflow:visible;visibility:visible;opacity:1;fill:#e89728;fill-opacity:1;fill-rule:nonzero;stroke:none;stroke-width:1.22347641;stroke-linecap:square;stroke-linejoin:miter;stroke-miterlimit:4;stroke-dasharray:none;stroke-dashoffset:0;stroke-opacity:1;marker:none;enable-background:accumulate"
           d="m 157.53711,515.29102 a 45.75,45.75 0 0 1 -23.95508,-6.11719 45.75,45.75 0 0 1 -22.875,-39.61914 l 13.71485,0 a 32.03553,32.03553 0 0 0 32.03515,32.03516 32.03553,32.03553 0 0 0 32.03516,-32.03516 l 13.71484,0 a 45.75,45.75 0 0 1 -22.875,39.61914 45.75,45.75 0 0 1 -21.79492,6.11719 z"
           id="path4396-0-7-6-7-5" />
      </g>
      <g
         id="text4136-9-0-3"
         style="font-style:normal;font-variant:normal;font-weight:normal;font-stretch:normal;font-size:229.27110291px;line-height:125%;font-family:FreeSans;-inkscape-font-specification:FreeSans;text-align:center;letter-spacing:0px;word-spacing:0px;writing-mode:lr-tb;text-anchor:middle;fill:#e89728;fill-opacity:1;stroke:none;stroke-width:1px;stroke-linecap:butt;stroke-linejoin:miter;stroke-opacity:1"
         transform="matrix(0.9999629,0,0,1.0000371,-15.985631,-118.95296)">
        <path
           sodipodi:nodetypes="sssssssss"
           inkscape:connector-curvature="0"
           id="path4561-0-49"
           style="font-style:normal;font-variant:normal;font-weight:normal;font-stretch:normal;font-size:229.27110291px;line-height:125%;font-family:'Century Gothic';-inkscape-font-specification:'Century Gothic, Normal';text-align:center;writing-mode:lr-tb;text-anchor:middle;fill:#e89728;fill-opacity:1;stroke:none;stroke-width:1px;stroke-opacity:1"
           d="m 77.021535,376.64134 c 3.582361,0 6.642295,1.26875 9.1798,3.80626 2.537506,2.53751 3.806259,5.59744 3.806259,9.1798 0,3.50773 -1.268753,6.53034 -3.806259,9.06785 -2.537505,2.53751 -5.597439,3.80626 -9.1798,3.80626 -3.507729,0 -6.530346,-1.26875 -9.067851,-3.80626 -2.537506,-2.53751 -3.806259,-5.56012 -3.806259,-9.06785 0,-3.58236 1.268753,-6.64229 3.806259,-9.1798 2.537505,-2.53751 5.560122,-3.80626 9.067851,-3.80626 z" />
      </g>
    </g>
  </g>
</svg>
